<mxfile host="Electron" agent="Mozilla/5.0 (X11; Linux x86_64) AppleWebKit/537.36 (KHTML, like Gecko) draw.io/24.7.5 Chrome/126.0.6478.183 Electron/31.3.0 Safari/537.36" version="24.7.5" pages="14">
  <diagram name="Page-1" id="5Bxo__iWAD-jl5Zof7OU">
    <mxGraphModel dx="398" dy="399" grid="1" gridSize="5" guides="1" tooltips="1" connect="1" arrows="1" fold="1" page="1" pageScale="1" pageWidth="827" pageHeight="1169" math="0" shadow="0">
      <root>
        <mxCell id="0" />
        <mxCell id="1" parent="0" />
        <mxCell id="zL1pQFSMY5oCaK3zQYqm-4" style="edgeStyle=orthogonalEdgeStyle;curved=1;rounded=0;orthogonalLoop=1;jettySize=auto;html=1;strokeColor=default;strokeWidth=2;align=center;verticalAlign=middle;fontFamily=Helvetica;fontSize=12;fontColor=default;labelBackgroundColor=default;endArrow=none;endFill=0;" edge="1" parent="1">
          <mxGeometry relative="1" as="geometry">
            <mxPoint x="180" y="220" as="targetPoint" />
            <mxPoint x="180" y="200" as="sourcePoint" />
          </mxGeometry>
        </mxCell>
        <mxCell id="zL1pQFSMY5oCaK3zQYqm-5" style="edgeStyle=orthogonalEdgeStyle;curved=1;rounded=0;orthogonalLoop=1;jettySize=auto;html=1;exitX=0.25;exitY=0;exitDx=0;exitDy=0;strokeColor=default;strokeWidth=2;align=center;verticalAlign=middle;fontFamily=Helvetica;fontSize=12;fontColor=default;labelBackgroundColor=default;endArrow=none;endFill=0;" edge="1" parent="1" source="zL1pQFSMY5oCaK3zQYqm-7">
          <mxGeometry relative="1" as="geometry">
            <mxPoint x="200" y="540" as="targetPoint" />
          </mxGeometry>
        </mxCell>
        <mxCell id="zL1pQFSMY5oCaK3zQYqm-6" style="edgeStyle=orthogonalEdgeStyle;curved=1;rounded=0;orthogonalLoop=1;jettySize=auto;html=1;exitX=0.75;exitY=0;exitDx=0;exitDy=0;strokeColor=default;strokeWidth=2;align=center;verticalAlign=middle;fontFamily=Helvetica;fontSize=12;fontColor=default;labelBackgroundColor=default;endArrow=none;endFill=0;" edge="1" parent="1" source="zL1pQFSMY5oCaK3zQYqm-7">
          <mxGeometry relative="1" as="geometry">
            <mxPoint x="160" y="540" as="targetPoint" />
            <Array as="points">
              <mxPoint x="160" y="510" />
              <mxPoint x="160" y="510" />
            </Array>
          </mxGeometry>
        </mxCell>
        <mxCell id="zL1pQFSMY5oCaK3zQYqm-8" value="" style="rounded=1;whiteSpace=wrap;html=1;fontFamily=Helvetica;fontSize=12;labelBackgroundColor=default;strokeWidth=2;align=center;verticalAlign=middle;fillColor=#d5e8d4;strokeColor=#82b366;" vertex="1" parent="1">
          <mxGeometry x="160" y="220" width="40" height="40" as="geometry" />
        </mxCell>
        <mxCell id="zL1pQFSMY5oCaK3zQYqm-9" style="edgeStyle=orthogonalEdgeStyle;curved=1;rounded=0;orthogonalLoop=1;jettySize=auto;html=1;exitX=0.5;exitY=1;exitDx=0;exitDy=0;entryX=0.502;entryY=0.047;entryDx=0;entryDy=0;strokeColor=default;strokeWidth=2;align=center;verticalAlign=middle;fontFamily=Helvetica;fontSize=12;fontColor=default;labelBackgroundColor=default;endArrow=none;endFill=0;entryPerimeter=0;" edge="1" parent="1" source="zL1pQFSMY5oCaK3zQYqm-8">
          <mxGeometry relative="1" as="geometry">
            <mxPoint x="179.76" y="281.8800000000001" as="targetPoint" />
          </mxGeometry>
        </mxCell>
        <mxCell id="zL1pQFSMY5oCaK3zQYqm-16" style="edgeStyle=orthogonalEdgeStyle;rounded=0;orthogonalLoop=1;jettySize=auto;html=1;exitX=0.75;exitY=0;exitDx=0;exitDy=0;strokeColor=default;strokeWidth=2;align=center;verticalAlign=middle;fontFamily=Helvetica;fontSize=12;fontColor=default;labelBackgroundColor=default;endArrow=none;endFill=0;curved=1;" edge="1" parent="1" source="zL1pQFSMY5oCaK3zQYqm-14">
          <mxGeometry relative="1" as="geometry">
            <mxPoint x="160" y="340" as="targetPoint" />
          </mxGeometry>
        </mxCell>
        <mxCell id="zL1pQFSMY5oCaK3zQYqm-17" style="edgeStyle=orthogonalEdgeStyle;rounded=0;orthogonalLoop=1;jettySize=auto;html=1;exitX=0.25;exitY=0;exitDx=0;exitDy=0;strokeColor=default;strokeWidth=2;align=center;verticalAlign=middle;fontFamily=Helvetica;fontSize=12;fontColor=default;labelBackgroundColor=default;endArrow=none;endFill=0;curved=1;" edge="1" parent="1" source="zL1pQFSMY5oCaK3zQYqm-14">
          <mxGeometry relative="1" as="geometry">
            <mxPoint x="200" y="340" as="targetPoint" />
          </mxGeometry>
        </mxCell>
        <mxCell id="zL1pQFSMY5oCaK3zQYqm-14" value="" style="shape=trapezoid;perimeter=trapezoidPerimeter;whiteSpace=wrap;html=1;fixedSize=1;fontFamily=Helvetica;fontSize=12;labelBackgroundColor=default;size=50;direction=west;rounded=1;strokeColor=#9673a6;strokeWidth=2;align=center;verticalAlign=middle;fillColor=#e1d5e7;arcSize=12;flipV=1;" vertex="1" parent="1">
          <mxGeometry x="140" y="280" width="80" height="40" as="geometry" />
        </mxCell>
        <mxCell id="zL1pQFSMY5oCaK3zQYqm-18" style="edgeStyle=orthogonalEdgeStyle;curved=1;rounded=0;orthogonalLoop=1;jettySize=auto;html=1;exitX=0.502;exitY=0.052;exitDx=0;exitDy=0;strokeColor=default;strokeWidth=2;align=center;verticalAlign=middle;fontFamily=Helvetica;fontSize=12;fontColor=default;labelBackgroundColor=default;endArrow=none;endFill=0;exitPerimeter=0;" edge="1" parent="1" source="zL1pQFSMY5oCaK3zQYqm-21">
          <mxGeometry relative="1" as="geometry">
            <mxPoint x="180" y="400" as="targetPoint" />
          </mxGeometry>
        </mxCell>
        <mxCell id="zL1pQFSMY5oCaK3zQYqm-21" value="" style="shape=trapezoid;perimeter=trapezoidPerimeter;whiteSpace=wrap;html=1;fixedSize=1;fontFamily=Helvetica;fontSize=12;labelBackgroundColor=default;size=50;direction=west;rounded=1;strokeColor=#9673a6;strokeWidth=2;align=center;verticalAlign=middle;fillColor=#e1d5e7;arcSize=12;" vertex="1" parent="1">
          <mxGeometry x="140" y="340" width="80" height="40" as="geometry" />
        </mxCell>
        <mxCell id="zL1pQFSMY5oCaK3zQYqm-22" value="" style="rounded=1;whiteSpace=wrap;html=1;fontFamily=Helvetica;fontSize=12;labelBackgroundColor=default;strokeWidth=2;align=center;verticalAlign=middle;fillColor=#7EA6E0;strokeColor=default;fontColor=default;" vertex="1" parent="1">
          <mxGeometry x="160" y="400" width="40" height="40" as="geometry" />
        </mxCell>
        <mxCell id="zL1pQFSMY5oCaK3zQYqm-23" style="edgeStyle=orthogonalEdgeStyle;curved=1;rounded=0;orthogonalLoop=1;jettySize=auto;html=1;exitX=0.5;exitY=1;exitDx=0;exitDy=0;entryX=0.502;entryY=0.047;entryDx=0;entryDy=0;strokeColor=default;strokeWidth=2;align=center;verticalAlign=middle;fontFamily=Helvetica;fontSize=12;fontColor=default;labelBackgroundColor=default;endArrow=none;endFill=0;entryPerimeter=0;" edge="1" parent="1">
          <mxGeometry relative="1" as="geometry">
            <mxPoint x="179.88" y="461.8800000000001" as="targetPoint" />
            <mxPoint x="180.12" y="440" as="sourcePoint" />
            <Array as="points">
              <mxPoint x="180" y="450.88" />
            </Array>
          </mxGeometry>
        </mxCell>
        <mxCell id="zL1pQFSMY5oCaK3zQYqm-7" value="" style="shape=trapezoid;perimeter=trapezoidPerimeter;whiteSpace=wrap;html=1;fixedSize=1;fontFamily=Helvetica;fontSize=12;labelBackgroundColor=default;size=50;direction=west;rounded=1;strokeColor=#9673a6;strokeWidth=2;align=center;verticalAlign=middle;fillColor=#e1d5e7;arcSize=12;flipV=1;" vertex="1" parent="1">
          <mxGeometry x="140" y="460" width="80" height="40" as="geometry" />
        </mxCell>
      </root>
    </mxGraphModel>
  </diagram>
  <diagram id="o55q36Ucfk_iWNPpuyFs" name="Page-2">
    <mxGraphModel dx="1193" dy="1198" grid="1" gridSize="5" guides="1" tooltips="1" connect="1" arrows="1" fold="1" page="1" pageScale="1" pageWidth="827" pageHeight="1169" math="0" shadow="0">
      <root>
        <mxCell id="0" />
        <mxCell id="1" parent="0" />
        <mxCell id="CnZuvZI9KkF8e1H0d1t0-6" style="edgeStyle=orthogonalEdgeStyle;curved=1;rounded=0;orthogonalLoop=1;jettySize=auto;html=1;exitX=0.5;exitY=1;exitDx=0;exitDy=0;entryX=0.502;entryY=0.047;entryDx=0;entryDy=0;strokeColor=default;strokeWidth=2;align=center;verticalAlign=middle;fontFamily=Helvetica;fontSize=12;fontColor=default;labelBackgroundColor=default;endArrow=none;endFill=0;entryPerimeter=0;" parent="1" source="CnZuvZI9KkF8e1H0d1t0-5" edge="1">
          <mxGeometry relative="1" as="geometry">
            <mxPoint x="179.76" y="461.8800000000001" as="targetPoint" />
          </mxGeometry>
        </mxCell>
        <mxCell id="IK6WEtR7uVlaw868sh45-6" style="edgeStyle=orthogonalEdgeStyle;shape=connector;curved=1;rounded=0;orthogonalLoop=1;jettySize=auto;html=1;exitX=0.5;exitY=0;exitDx=0;exitDy=0;strokeColor=default;strokeWidth=2;align=center;verticalAlign=middle;fontFamily=Helvetica;fontSize=12;fontColor=default;labelBackgroundColor=default;endArrow=none;endFill=0;targetPerimeterSpacing=4;" parent="1" source="8S6yGIl05l9AoP4u_VU--4" edge="1">
          <mxGeometry relative="1" as="geometry">
            <mxPoint x="180" y="320" as="targetPoint" />
          </mxGeometry>
        </mxCell>
        <mxCell id="CnZuvZI9KkF8e1H0d1t0-5" value="" style="rounded=1;whiteSpace=wrap;html=1;fontFamily=Helvetica;fontSize=12;labelBackgroundColor=default;strokeWidth=2;align=center;verticalAlign=middle;fillColor=#d5e8d4;strokeColor=#82b366;" parent="1" vertex="1">
          <mxGeometry x="160" y="400" width="40" height="40" as="geometry" />
        </mxCell>
        <mxCell id="CnZuvZI9KkF8e1H0d1t0-7" style="edgeStyle=orthogonalEdgeStyle;rounded=0;orthogonalLoop=1;jettySize=auto;html=1;exitX=0.75;exitY=0;exitDx=0;exitDy=0;strokeColor=default;strokeWidth=2;align=center;verticalAlign=middle;fontFamily=Helvetica;fontSize=12;fontColor=default;labelBackgroundColor=default;endArrow=none;endFill=0;curved=1;" parent="1" source="CnZuvZI9KkF8e1H0d1t0-9" edge="1">
          <mxGeometry relative="1" as="geometry">
            <mxPoint x="160" y="520" as="targetPoint" />
          </mxGeometry>
        </mxCell>
        <mxCell id="CnZuvZI9KkF8e1H0d1t0-8" style="edgeStyle=orthogonalEdgeStyle;rounded=0;orthogonalLoop=1;jettySize=auto;html=1;exitX=0.25;exitY=0;exitDx=0;exitDy=0;strokeColor=default;strokeWidth=2;align=center;verticalAlign=middle;fontFamily=Helvetica;fontSize=12;fontColor=default;labelBackgroundColor=default;endArrow=none;endFill=0;curved=1;" parent="1" source="CnZuvZI9KkF8e1H0d1t0-9" edge="1">
          <mxGeometry relative="1" as="geometry">
            <mxPoint x="200" y="520" as="targetPoint" />
          </mxGeometry>
        </mxCell>
        <mxCell id="CnZuvZI9KkF8e1H0d1t0-9" value="" style="shape=trapezoid;perimeter=trapezoidPerimeter;whiteSpace=wrap;html=1;fixedSize=1;fontFamily=Helvetica;fontSize=12;labelBackgroundColor=default;size=50;direction=west;rounded=1;strokeColor=#9673a6;strokeWidth=2;align=center;verticalAlign=middle;fillColor=#e1d5e7;arcSize=12;flipV=1;" parent="1" vertex="1">
          <mxGeometry x="140" y="460" width="80" height="40" as="geometry" />
        </mxCell>
        <mxCell id="7-B8cXFjMcU2jIQe5oSU-1" value="" style="edgeStyle=orthogonalEdgeStyle;shape=connector;curved=1;rounded=0;orthogonalLoop=1;jettySize=auto;html=1;exitX=0.5;exitY=0;exitDx=0;exitDy=0;strokeColor=default;strokeWidth=2;align=center;verticalAlign=middle;fontFamily=Helvetica;fontSize=12;fontColor=default;labelBackgroundColor=default;endArrow=none;endFill=0;targetPerimeterSpacing=4;entryX=0.5;entryY=0.875;entryDx=0;entryDy=0;entryPerimeter=0;" parent="1" source="CnZuvZI9KkF8e1H0d1t0-5" target="8S6yGIl05l9AoP4u_VU--4" edge="1">
          <mxGeometry relative="1" as="geometry">
            <mxPoint x="180" y="400" as="sourcePoint" />
            <mxPoint x="180" y="330" as="targetPoint" />
          </mxGeometry>
        </mxCell>
        <mxCell id="8S6yGIl05l9AoP4u_VU--4" value="" style="rhombus;whiteSpace=wrap;html=1;fillColor=#f8cecc;strokeColor=#b85450;strokeWidth=2;" parent="1" vertex="1">
          <mxGeometry x="160" y="340" width="40" height="40" as="geometry" />
        </mxCell>
      </root>
    </mxGraphModel>
  </diagram>
  <diagram id="Fq-K2l-DgtnYeCuaKwJc" name="Page-4">
    <mxGraphModel dx="568" dy="570" grid="1" gridSize="5" guides="1" tooltips="1" connect="1" arrows="1" fold="1" page="1" pageScale="1" pageWidth="827" pageHeight="1169" math="0" shadow="0">
      <root>
        <mxCell id="0" />
        <mxCell id="1" parent="0" />
        <mxCell id="RnuahqM3ZIwZsGqe2Jbl-7" style="edgeStyle=orthogonalEdgeStyle;shape=connector;curved=1;rounded=0;orthogonalLoop=1;jettySize=auto;html=1;exitX=0.5;exitY=0;exitDx=0;exitDy=0;strokeColor=default;strokeWidth=2;align=center;verticalAlign=middle;fontFamily=Helvetica;fontSize=12;fontColor=default;labelBackgroundColor=default;endArrow=none;endFill=0;targetPerimeterSpacing=4;" edge="1" parent="1" source="-nB3UMWaj-El-wDWVs-F-1">
          <mxGeometry relative="1" as="geometry">
            <mxPoint x="180.09523809523807" y="200" as="targetPoint" />
          </mxGeometry>
        </mxCell>
        <mxCell id="-nB3UMWaj-El-wDWVs-F-1" value="" style="rounded=1;whiteSpace=wrap;html=1;fontFamily=Helvetica;fontSize=12;labelBackgroundColor=default;strokeWidth=2;align=center;verticalAlign=middle;fillColor=#d5e8d4;strokeColor=#82b366;" vertex="1" parent="1">
          <mxGeometry x="160" y="220" width="40" height="40" as="geometry" />
        </mxCell>
        <mxCell id="RnuahqM3ZIwZsGqe2Jbl-1" style="edgeStyle=orthogonalEdgeStyle;curved=1;rounded=0;orthogonalLoop=1;jettySize=auto;html=1;exitX=0.502;exitY=0.052;exitDx=0;exitDy=0;strokeColor=default;strokeWidth=2;align=center;verticalAlign=middle;fontFamily=Helvetica;fontSize=12;fontColor=default;labelBackgroundColor=default;endArrow=none;endFill=0;exitPerimeter=0;" edge="1" parent="1">
          <mxGeometry relative="1" as="geometry">
            <mxPoint x="180" y="282" as="targetPoint" />
            <mxPoint x="180" y="260" as="sourcePoint" />
          </mxGeometry>
        </mxCell>
        <mxCell id="RnuahqM3ZIwZsGqe2Jbl-2" style="edgeStyle=orthogonalEdgeStyle;curved=1;rounded=0;orthogonalLoop=1;jettySize=auto;html=1;exitX=0.5;exitY=1;exitDx=0;exitDy=0;entryX=0.502;entryY=0.047;entryDx=0;entryDy=0;strokeColor=default;strokeWidth=2;align=center;verticalAlign=middle;fontFamily=Helvetica;fontSize=12;fontColor=default;labelBackgroundColor=default;endArrow=none;endFill=0;entryPerimeter=0;" edge="1" parent="1" source="RnuahqM3ZIwZsGqe2Jbl-3">
          <mxGeometry relative="1" as="geometry">
            <mxPoint x="179.76" y="343.8800000000001" as="targetPoint" />
          </mxGeometry>
        </mxCell>
        <mxCell id="RnuahqM3ZIwZsGqe2Jbl-3" value="" style="rounded=1;whiteSpace=wrap;html=1;fontFamily=Helvetica;fontSize=12;labelBackgroundColor=default;strokeWidth=2;align=center;verticalAlign=middle;fillColor=#7EA6E0;strokeColor=default;fontColor=default;" vertex="1" parent="1">
          <mxGeometry x="160" y="282" width="40" height="40" as="geometry" />
        </mxCell>
      </root>
    </mxGraphModel>
  </diagram>
  <diagram id="C8irIY_HGy9-S9S6FKGJ" name="Page-5">
    <mxGraphModel dx="1193" dy="1198" grid="1" gridSize="5" guides="1" tooltips="1" connect="1" arrows="1" fold="1" page="1" pageScale="1" pageWidth="827" pageHeight="1169" math="0" shadow="0">
      <root>
        <mxCell id="0" />
        <mxCell id="1" parent="0" />
        <mxCell id="JRr2LYQU8oyDpFeKcMVk-4" style="edgeStyle=orthogonalEdgeStyle;curved=1;rounded=0;orthogonalLoop=1;jettySize=auto;html=1;exitX=0.502;exitY=0.052;exitDx=0;exitDy=0;strokeColor=default;strokeWidth=2;align=center;verticalAlign=middle;fontFamily=Helvetica;fontSize=12;fontColor=default;labelBackgroundColor=default;endArrow=none;endFill=0;exitPerimeter=0;" parent="1" edge="1">
          <mxGeometry relative="1" as="geometry">
            <mxPoint x="179.88" y="502" as="targetPoint" />
            <mxPoint x="179.88" y="480" as="sourcePoint" />
          </mxGeometry>
        </mxCell>
        <mxCell id="RPthXXu84HC6P6iVotik-1" style="edgeStyle=orthogonalEdgeStyle;curved=1;rounded=0;orthogonalLoop=1;jettySize=auto;html=1;strokeColor=default;strokeWidth=2;align=center;verticalAlign=middle;fontFamily=Helvetica;fontSize=12;fontColor=default;labelBackgroundColor=default;endArrow=none;endFill=0;" parent="1" edge="1">
          <mxGeometry relative="1" as="geometry">
            <mxPoint x="179.8" y="452" as="targetPoint" />
            <mxPoint x="180" y="420" as="sourcePoint" />
          </mxGeometry>
        </mxCell>
        <mxCell id="RPthXXu84HC6P6iVotik-3" value="" style="rounded=1;whiteSpace=wrap;html=1;fontFamily=Helvetica;fontSize=12;labelBackgroundColor=default;strokeWidth=2;align=center;verticalAlign=middle;fillColor=#d5e8d4;strokeColor=#82b366;" parent="1" vertex="1">
          <mxGeometry x="160" y="500" width="40" height="40" as="geometry" />
        </mxCell>
        <mxCell id="JRr2LYQU8oyDpFeKcMVk-1" value="" style="rhombus;whiteSpace=wrap;html=1;fillColor=#f8cecc;strokeColor=#b85450;strokeWidth=2;" parent="1" vertex="1">
          <mxGeometry x="160" y="445" width="40" height="40" as="geometry" />
        </mxCell>
        <mxCell id="fhR-DKhsLk7Z3rRbCXzI-1" style="edgeStyle=orthogonalEdgeStyle;curved=1;rounded=0;orthogonalLoop=1;jettySize=auto;html=1;exitX=0.502;exitY=0.052;exitDx=0;exitDy=0;strokeColor=default;strokeWidth=2;align=center;verticalAlign=middle;fontFamily=Helvetica;fontSize=12;fontColor=default;labelBackgroundColor=default;endArrow=none;endFill=0;exitPerimeter=0;" parent="1" edge="1">
          <mxGeometry relative="1" as="geometry">
            <mxPoint x="179.8" y="562" as="targetPoint" />
            <mxPoint x="179.8" y="540" as="sourcePoint" />
          </mxGeometry>
        </mxCell>
      </root>
    </mxGraphModel>
  </diagram>
  <diagram id="ptHm_nxStgQCinvSS50u" name="Page-6">
    <mxGraphModel dx="1193" dy="1198" grid="1" gridSize="5" guides="1" tooltips="1" connect="1" arrows="1" fold="1" page="1" pageScale="1" pageWidth="827" pageHeight="1169" math="0" shadow="0">
      <root>
        <mxCell id="0" />
        <mxCell id="1" parent="0" />
        <mxCell id="Z5d1Z7oMk8WnWG4nuCp--2" style="edgeStyle=orthogonalEdgeStyle;shape=connector;curved=1;rounded=0;orthogonalLoop=1;jettySize=auto;html=1;exitX=0.25;exitY=0;exitDx=0;exitDy=0;strokeColor=default;strokeWidth=2;align=center;verticalAlign=middle;fontFamily=Helvetica;fontSize=12;fontColor=default;labelBackgroundColor=default;endArrow=none;endFill=0;targetPerimeterSpacing=4;" parent="1" source="Z5d1Z7oMk8WnWG4nuCp--1" edge="1">
          <mxGeometry relative="1" as="geometry">
            <mxPoint x="175.03846153846155" y="380" as="targetPoint" />
          </mxGeometry>
        </mxCell>
        <mxCell id="Z5d1Z7oMk8WnWG4nuCp--3" style="edgeStyle=orthogonalEdgeStyle;shape=connector;curved=1;rounded=0;orthogonalLoop=1;jettySize=auto;html=1;exitX=0.75;exitY=0;exitDx=0;exitDy=0;strokeColor=default;strokeWidth=2;align=center;verticalAlign=middle;fontFamily=Helvetica;fontSize=12;fontColor=default;labelBackgroundColor=default;endArrow=none;endFill=0;targetPerimeterSpacing=4;" parent="1" source="Z5d1Z7oMk8WnWG4nuCp--1" edge="1">
          <mxGeometry relative="1" as="geometry">
            <mxPoint x="205.03846153846155" y="380" as="targetPoint" />
          </mxGeometry>
        </mxCell>
        <mxCell id="Z5d1Z7oMk8WnWG4nuCp--4" style="edgeStyle=orthogonalEdgeStyle;shape=connector;curved=1;rounded=0;orthogonalLoop=1;jettySize=auto;html=1;exitX=0.25;exitY=1;exitDx=0;exitDy=0;strokeColor=default;strokeWidth=2;align=center;verticalAlign=middle;fontFamily=Helvetica;fontSize=12;fontColor=default;labelBackgroundColor=default;endArrow=none;endFill=0;targetPerimeterSpacing=4;" parent="1" source="Z5d1Z7oMk8WnWG4nuCp--1" edge="1">
          <mxGeometry relative="1" as="geometry">
            <mxPoint x="175.03846153846155" y="460" as="targetPoint" />
          </mxGeometry>
        </mxCell>
        <mxCell id="Z5d1Z7oMk8WnWG4nuCp--5" style="edgeStyle=orthogonalEdgeStyle;shape=connector;curved=1;rounded=0;orthogonalLoop=1;jettySize=auto;html=1;exitX=0.75;exitY=1;exitDx=0;exitDy=0;strokeColor=default;strokeWidth=2;align=center;verticalAlign=middle;fontFamily=Helvetica;fontSize=12;fontColor=default;labelBackgroundColor=default;endArrow=none;endFill=0;targetPerimeterSpacing=4;" parent="1" source="Z5d1Z7oMk8WnWG4nuCp--1" edge="1">
          <mxGeometry relative="1" as="geometry">
            <mxPoint x="205.03846153846155" y="460" as="targetPoint" />
          </mxGeometry>
        </mxCell>
        <mxCell id="Z5d1Z7oMk8WnWG4nuCp--1" value="" style="rounded=1;whiteSpace=wrap;html=1;fontFamily=Helvetica;fontSize=12;labelBackgroundColor=default;strokeWidth=2;align=center;verticalAlign=middle;fillColor=#7EA6E0;strokeColor=default;fontColor=default;" parent="1" vertex="1">
          <mxGeometry x="160" y="400" width="60" height="40" as="geometry" />
        </mxCell>
        <mxCell id="Z5d1Z7oMk8WnWG4nuCp--7" style="edgeStyle=orthogonalEdgeStyle;shape=connector;curved=1;rounded=0;orthogonalLoop=1;jettySize=auto;html=1;exitX=0.5;exitY=0;exitDx=0;exitDy=0;strokeColor=default;strokeWidth=2;align=center;verticalAlign=middle;fontFamily=Helvetica;fontSize=12;fontColor=default;labelBackgroundColor=default;endArrow=none;endFill=0;targetPerimeterSpacing=4;" parent="1" source="Z5d1Z7oMk8WnWG4nuCp--6" edge="1">
          <mxGeometry relative="1" as="geometry">
            <mxPoint x="190.03846153846155" y="320" as="targetPoint" />
          </mxGeometry>
        </mxCell>
        <mxCell id="Z5d1Z7oMk8WnWG4nuCp--6" value="" style="rounded=1;whiteSpace=wrap;html=1;fontFamily=Helvetica;fontSize=12;labelBackgroundColor=default;strokeWidth=2;align=center;verticalAlign=middle;fillColor=#d5e8d4;strokeColor=#82b366;" parent="1" vertex="1">
          <mxGeometry x="160" y="340" width="60" height="40" as="geometry" />
        </mxCell>
      </root>
    </mxGraphModel>
  </diagram>
  <diagram id="PZ049pZZWd11PWFifKnJ" name="Page-7">
    <mxGraphModel dx="1193" dy="1198" grid="1" gridSize="5" guides="1" tooltips="1" connect="1" arrows="1" fold="1" page="1" pageScale="1" pageWidth="827" pageHeight="1169" math="0" shadow="0">
      <root>
        <mxCell id="0" />
        <mxCell id="1" parent="0" />
        <mxCell id="v7kstKAWqhdzTEMkvCsH-1" style="edgeStyle=orthogonalEdgeStyle;shape=connector;curved=1;rounded=0;orthogonalLoop=1;jettySize=auto;html=1;exitX=0.25;exitY=0;exitDx=0;exitDy=0;strokeColor=default;strokeWidth=2;align=center;verticalAlign=middle;fontFamily=Helvetica;fontSize=12;fontColor=default;labelBackgroundColor=default;endArrow=none;endFill=0;targetPerimeterSpacing=4;" parent="1" edge="1">
          <mxGeometry relative="1" as="geometry">
            <mxPoint x="175.03846153846155" y="380" as="targetPoint" />
            <mxPoint x="175" y="400" as="sourcePoint" />
          </mxGeometry>
        </mxCell>
        <mxCell id="v7kstKAWqhdzTEMkvCsH-2" style="edgeStyle=orthogonalEdgeStyle;shape=connector;curved=1;rounded=0;orthogonalLoop=1;jettySize=auto;html=1;exitX=0.75;exitY=0;exitDx=0;exitDy=0;strokeColor=default;strokeWidth=2;align=center;verticalAlign=middle;fontFamily=Helvetica;fontSize=12;fontColor=default;labelBackgroundColor=default;endArrow=none;endFill=0;targetPerimeterSpacing=4;" parent="1" edge="1">
          <mxGeometry relative="1" as="geometry">
            <mxPoint x="205.03846153846155" y="380" as="targetPoint" />
            <mxPoint x="205" y="400" as="sourcePoint" />
          </mxGeometry>
        </mxCell>
        <mxCell id="v7kstKAWqhdzTEMkvCsH-3" style="edgeStyle=orthogonalEdgeStyle;shape=connector;curved=1;rounded=0;orthogonalLoop=1;jettySize=auto;html=1;exitX=0.5;exitY=0;exitDx=0;exitDy=0;strokeColor=default;strokeWidth=2;align=center;verticalAlign=middle;fontFamily=Helvetica;fontSize=12;fontColor=default;labelBackgroundColor=default;endArrow=none;endFill=0;targetPerimeterSpacing=4;" parent="1" source="v7kstKAWqhdzTEMkvCsH-4" edge="1">
          <mxGeometry relative="1" as="geometry">
            <mxPoint x="190" y="260" as="targetPoint" />
          </mxGeometry>
        </mxCell>
        <mxCell id="v7kstKAWqhdzTEMkvCsH-4" value="" style="rounded=1;whiteSpace=wrap;html=1;fontFamily=Helvetica;fontSize=12;labelBackgroundColor=default;strokeWidth=2;align=center;verticalAlign=middle;fillColor=#d5e8d4;strokeColor=#82b366;" parent="1" vertex="1">
          <mxGeometry x="160" y="340" width="60" height="40" as="geometry" />
        </mxCell>
        <mxCell id="oErbtyvIHXy7WNHx6Ixl-1" value="" style="rhombus;whiteSpace=wrap;html=1;fillColor=#f8cecc;strokeColor=#b85450;strokeWidth=2;" parent="1" vertex="1">
          <mxGeometry x="170" y="280" width="40" height="40" as="geometry" />
        </mxCell>
      </root>
    </mxGraphModel>
  </diagram>
  <diagram id="fMp77Dss9st3gPCT4hrB" name="Page-8">
    <mxGraphModel dx="477" dy="479" grid="1" gridSize="5" guides="1" tooltips="1" connect="1" arrows="1" fold="1" page="1" pageScale="1" pageWidth="827" pageHeight="1169" math="0" shadow="0">
      <root>
        <mxCell id="0" />
        <mxCell id="1" parent="0" />
        <mxCell id="rDt9a-USMpeh-bBL6dPN-1" style="edgeStyle=orthogonalEdgeStyle;shape=connector;curved=1;rounded=0;orthogonalLoop=1;jettySize=auto;html=1;exitX=0.25;exitY=0;exitDx=0;exitDy=0;strokeColor=default;strokeWidth=2;align=center;verticalAlign=middle;fontFamily=Helvetica;fontSize=12;fontColor=default;labelBackgroundColor=default;endArrow=none;endFill=0;targetPerimeterSpacing=4;" edge="1" parent="1" source="rDt9a-USMpeh-bBL6dPN-5">
          <mxGeometry relative="1" as="geometry">
            <mxPoint x="170" y="380" as="targetPoint" />
          </mxGeometry>
        </mxCell>
        <mxCell id="rDt9a-USMpeh-bBL6dPN-2" style="edgeStyle=orthogonalEdgeStyle;shape=connector;curved=1;rounded=0;orthogonalLoop=1;jettySize=auto;html=1;exitX=0.75;exitY=0;exitDx=0;exitDy=0;strokeColor=default;strokeWidth=2;align=center;verticalAlign=middle;fontFamily=Helvetica;fontSize=12;fontColor=default;labelBackgroundColor=default;endArrow=none;endFill=0;targetPerimeterSpacing=4;" edge="1" parent="1" source="rDt9a-USMpeh-bBL6dPN-5">
          <mxGeometry relative="1" as="geometry">
            <mxPoint x="210" y="380" as="targetPoint" />
          </mxGeometry>
        </mxCell>
        <mxCell id="rDt9a-USMpeh-bBL6dPN-3" style="edgeStyle=orthogonalEdgeStyle;shape=connector;curved=1;rounded=0;orthogonalLoop=1;jettySize=auto;html=1;exitX=0.25;exitY=1;exitDx=0;exitDy=0;strokeColor=default;strokeWidth=2;align=center;verticalAlign=middle;fontFamily=Helvetica;fontSize=12;fontColor=default;labelBackgroundColor=default;endArrow=none;endFill=0;targetPerimeterSpacing=4;" edge="1" parent="1" source="rDt9a-USMpeh-bBL6dPN-5">
          <mxGeometry relative="1" as="geometry">
            <mxPoint x="170" y="460" as="targetPoint" />
          </mxGeometry>
        </mxCell>
        <mxCell id="rDt9a-USMpeh-bBL6dPN-4" style="edgeStyle=orthogonalEdgeStyle;shape=connector;curved=1;rounded=0;orthogonalLoop=1;jettySize=auto;html=1;exitX=0.75;exitY=1;exitDx=0;exitDy=0;strokeColor=default;strokeWidth=2;align=center;verticalAlign=middle;fontFamily=Helvetica;fontSize=12;fontColor=default;labelBackgroundColor=default;endArrow=none;endFill=0;targetPerimeterSpacing=4;" edge="1" parent="1" source="rDt9a-USMpeh-bBL6dPN-5">
          <mxGeometry relative="1" as="geometry">
            <mxPoint x="210" y="460" as="targetPoint" />
          </mxGeometry>
        </mxCell>
        <mxCell id="rDt9a-USMpeh-bBL6dPN-7" style="edgeStyle=orthogonalEdgeStyle;shape=connector;curved=1;rounded=0;orthogonalLoop=1;jettySize=auto;html=1;exitX=0.5;exitY=1;exitDx=0;exitDy=0;strokeColor=default;strokeWidth=2;align=center;verticalAlign=middle;fontFamily=Helvetica;fontSize=12;fontColor=default;labelBackgroundColor=default;endArrow=none;endFill=0;targetPerimeterSpacing=4;" edge="1" parent="1" source="rDt9a-USMpeh-bBL6dPN-5">
          <mxGeometry relative="1" as="geometry">
            <mxPoint x="189.97674418604652" y="460" as="targetPoint" />
          </mxGeometry>
        </mxCell>
        <mxCell id="rDt9a-USMpeh-bBL6dPN-5" value="" style="rounded=1;whiteSpace=wrap;html=1;fontFamily=Helvetica;fontSize=12;labelBackgroundColor=default;strokeWidth=2;align=center;verticalAlign=middle;fillColor=#7EA6E0;strokeColor=default;fontColor=default;" vertex="1" parent="1">
          <mxGeometry x="150" y="400" width="80" height="40" as="geometry" />
        </mxCell>
      </root>
    </mxGraphModel>
  </diagram>
  <diagram id="PnVqTpa4UK1qs6kSjAGJ" name="Page-9">
    <mxGraphModel dx="477" dy="479" grid="1" gridSize="5" guides="1" tooltips="1" connect="1" arrows="1" fold="1" page="1" pageScale="1" pageWidth="827" pageHeight="1169" math="0" shadow="0">
      <root>
        <mxCell id="0" />
        <mxCell id="1" parent="0" />
        <mxCell id="szbwTppEDBvCpcvI7Feo-1" style="edgeStyle=orthogonalEdgeStyle;curved=1;rounded=0;orthogonalLoop=1;jettySize=auto;html=1;entryX=0.502;entryY=0.047;entryDx=0;entryDy=0;strokeColor=default;strokeWidth=2;align=center;verticalAlign=middle;fontFamily=Helvetica;fontSize=12;fontColor=default;labelBackgroundColor=default;endArrow=none;endFill=0;entryPerimeter=0;exitX=0.498;exitY=0.09;exitDx=0;exitDy=0;exitPerimeter=0;" edge="1" parent="1" source="wNbmsuA0VWhCZwLF6-23-1">
          <mxGeometry relative="1" as="geometry">
            <mxPoint x="329.8" y="435" as="targetPoint" />
            <mxPoint x="330" y="460" as="sourcePoint" />
          </mxGeometry>
        </mxCell>
        <mxCell id="szbwTppEDBvCpcvI7Feo-5" style="edgeStyle=orthogonalEdgeStyle;shape=connector;curved=1;rounded=0;orthogonalLoop=1;jettySize=auto;html=1;exitX=0.75;exitY=1;exitDx=0;exitDy=0;strokeColor=default;strokeWidth=2;align=center;verticalAlign=middle;fontFamily=Helvetica;fontSize=12;fontColor=default;labelBackgroundColor=default;endArrow=none;endFill=0;targetPerimeterSpacing=4;" edge="1" parent="1" source="szbwTppEDBvCpcvI7Feo-4">
          <mxGeometry relative="1" as="geometry">
            <mxPoint x="310" y="365" as="targetPoint" />
          </mxGeometry>
        </mxCell>
        <mxCell id="szbwTppEDBvCpcvI7Feo-6" style="edgeStyle=orthogonalEdgeStyle;shape=connector;curved=1;rounded=0;orthogonalLoop=1;jettySize=auto;html=1;exitX=0.25;exitY=1;exitDx=0;exitDy=0;strokeColor=default;strokeWidth=2;align=center;verticalAlign=middle;fontFamily=Helvetica;fontSize=12;fontColor=default;labelBackgroundColor=default;endArrow=none;endFill=0;targetPerimeterSpacing=4;" edge="1" parent="1" source="szbwTppEDBvCpcvI7Feo-4">
          <mxGeometry relative="1" as="geometry">
            <mxPoint x="350.1111111111111" y="365" as="targetPoint" />
          </mxGeometry>
        </mxCell>
        <mxCell id="szbwTppEDBvCpcvI7Feo-4" value="" style="shape=trapezoid;perimeter=trapezoidPerimeter;whiteSpace=wrap;html=1;fixedSize=1;fontFamily=Helvetica;fontSize=12;labelBackgroundColor=default;size=50;direction=west;rounded=1;strokeColor=#82b366;strokeWidth=2;align=center;verticalAlign=middle;fillColor=#d5e8d4;arcSize=12;flipV=0;" vertex="1" parent="1">
          <mxGeometry x="290" y="400" width="80" height="40" as="geometry" />
        </mxCell>
        <mxCell id="JyoG7uinSbYLS2BGlTsV-2" style="edgeStyle=orthogonalEdgeStyle;shape=connector;curved=1;rounded=0;orthogonalLoop=1;jettySize=auto;html=1;exitX=0.498;exitY=0.933;exitDx=0;exitDy=0;entryX=0.498;entryY=0.113;entryDx=0;entryDy=0;strokeColor=default;strokeWidth=2;align=center;verticalAlign=middle;fontFamily=Helvetica;fontSize=12;fontColor=default;labelBackgroundColor=default;endArrow=none;endFill=0;targetPerimeterSpacing=4;entryPerimeter=0;exitPerimeter=0;" edge="1" parent="1" source="wNbmsuA0VWhCZwLF6-23-1" target="JyoG7uinSbYLS2BGlTsV-1">
          <mxGeometry relative="1" as="geometry" />
        </mxCell>
        <mxCell id="wNbmsuA0VWhCZwLF6-23-1" value="" style="rhombus;whiteSpace=wrap;html=1;fillColor=#f8cecc;strokeColor=#b85450;strokeWidth=2;" vertex="1" parent="1">
          <mxGeometry x="310" y="460" width="40" height="40" as="geometry" />
        </mxCell>
        <mxCell id="LtLuP9K32QcPEVp6nrcA-1" style="edgeStyle=orthogonalEdgeStyle;shape=connector;curved=1;rounded=0;orthogonalLoop=1;jettySize=auto;html=1;exitX=0.75;exitY=0;exitDx=0;exitDy=0;strokeColor=default;strokeWidth=2;align=center;verticalAlign=middle;fontFamily=Helvetica;fontSize=12;fontColor=default;labelBackgroundColor=default;endArrow=none;endFill=0;targetPerimeterSpacing=4;" edge="1" parent="1" source="JyoG7uinSbYLS2BGlTsV-1">
          <mxGeometry relative="1" as="geometry">
            <mxPoint x="305" y="580" as="targetPoint" />
          </mxGeometry>
        </mxCell>
        <mxCell id="LtLuP9K32QcPEVp6nrcA-2" style="edgeStyle=orthogonalEdgeStyle;shape=connector;curved=1;rounded=0;orthogonalLoop=1;jettySize=auto;html=1;exitX=0.5;exitY=0;exitDx=0;exitDy=0;strokeColor=default;strokeWidth=2;align=center;verticalAlign=middle;fontFamily=Helvetica;fontSize=12;fontColor=default;labelBackgroundColor=default;endArrow=none;endFill=0;targetPerimeterSpacing=4;" edge="1" parent="1" source="JyoG7uinSbYLS2BGlTsV-1">
          <mxGeometry relative="1" as="geometry">
            <mxPoint x="330.20000000000005" y="580" as="targetPoint" />
          </mxGeometry>
        </mxCell>
        <mxCell id="LtLuP9K32QcPEVp6nrcA-3" style="edgeStyle=orthogonalEdgeStyle;shape=connector;curved=1;rounded=0;orthogonalLoop=1;jettySize=auto;html=1;exitX=0.25;exitY=0;exitDx=0;exitDy=0;strokeColor=default;strokeWidth=2;align=center;verticalAlign=middle;fontFamily=Helvetica;fontSize=12;fontColor=default;labelBackgroundColor=default;endArrow=none;endFill=0;targetPerimeterSpacing=4;" edge="1" parent="1" source="JyoG7uinSbYLS2BGlTsV-1">
          <mxGeometry relative="1" as="geometry">
            <mxPoint x="355" y="580" as="targetPoint" />
          </mxGeometry>
        </mxCell>
        <mxCell id="JyoG7uinSbYLS2BGlTsV-1" value="" style="shape=trapezoid;perimeter=trapezoidPerimeter;whiteSpace=wrap;html=1;fixedSize=1;fontFamily=Helvetica;fontSize=12;labelBackgroundColor=default;size=50;direction=west;rounded=1;strokeColor=#d6b656;strokeWidth=2;align=center;verticalAlign=middle;fillColor=#fff2cc;arcSize=12;flipV=1;" vertex="1" parent="1">
          <mxGeometry x="280" y="520" width="100" height="40" as="geometry" />
        </mxCell>
      </root>
    </mxGraphModel>
  </diagram>
  <diagram id="mimK0ilGvWpFj57SHL9P" name="Page-10">
    <mxGraphModel dx="477" dy="479" grid="1" gridSize="5" guides="1" tooltips="1" connect="1" arrows="1" fold="1" page="1" pageScale="1" pageWidth="827" pageHeight="1169" math="0" shadow="0">
      <root>
        <mxCell id="0" />
        <mxCell id="1" parent="0" />
        <mxCell id="6lhoyeqqwMRIm5VgxkKL-1" style="edgeStyle=orthogonalEdgeStyle;curved=1;rounded=0;orthogonalLoop=1;jettySize=auto;html=1;entryX=0.502;entryY=0.047;entryDx=0;entryDy=0;strokeColor=default;strokeWidth=2;align=center;verticalAlign=middle;fontFamily=Helvetica;fontSize=12;fontColor=default;labelBackgroundColor=default;endArrow=none;endFill=0;entryPerimeter=0;exitX=0.498;exitY=0.09;exitDx=0;exitDy=0;exitPerimeter=0;" edge="1" parent="1" source="6lhoyeqqwMRIm5VgxkKL-6">
          <mxGeometry relative="1" as="geometry">
            <mxPoint x="329.8" y="435" as="targetPoint" />
            <mxPoint x="330" y="460" as="sourcePoint" />
          </mxGeometry>
        </mxCell>
        <mxCell id="6lhoyeqqwMRIm5VgxkKL-2" style="edgeStyle=orthogonalEdgeStyle;shape=connector;curved=1;rounded=0;orthogonalLoop=1;jettySize=auto;html=1;exitX=0.75;exitY=1;exitDx=0;exitDy=0;strokeColor=default;strokeWidth=2;align=center;verticalAlign=middle;fontFamily=Helvetica;fontSize=12;fontColor=default;labelBackgroundColor=default;endArrow=none;endFill=0;targetPerimeterSpacing=4;" edge="1" parent="1" source="6lhoyeqqwMRIm5VgxkKL-4">
          <mxGeometry relative="1" as="geometry">
            <mxPoint x="310" y="320" as="targetPoint" />
          </mxGeometry>
        </mxCell>
        <mxCell id="6lhoyeqqwMRIm5VgxkKL-3" style="edgeStyle=orthogonalEdgeStyle;shape=connector;curved=1;rounded=0;orthogonalLoop=1;jettySize=auto;html=1;exitX=0.25;exitY=1;exitDx=0;exitDy=0;strokeColor=default;strokeWidth=2;align=center;verticalAlign=middle;fontFamily=Helvetica;fontSize=12;fontColor=default;labelBackgroundColor=default;endArrow=none;endFill=0;targetPerimeterSpacing=4;" edge="1" parent="1" source="6lhoyeqqwMRIm5VgxkKL-4">
          <mxGeometry relative="1" as="geometry">
            <mxPoint x="350" y="320" as="targetPoint" />
          </mxGeometry>
        </mxCell>
        <mxCell id="6lhoyeqqwMRIm5VgxkKL-5" style="edgeStyle=orthogonalEdgeStyle;shape=connector;curved=1;rounded=0;orthogonalLoop=1;jettySize=auto;html=1;exitX=0.498;exitY=0.933;exitDx=0;exitDy=0;entryX=0.498;entryY=0.113;entryDx=0;entryDy=0;strokeColor=default;strokeWidth=2;align=center;verticalAlign=middle;fontFamily=Helvetica;fontSize=12;fontColor=default;labelBackgroundColor=default;endArrow=none;endFill=0;targetPerimeterSpacing=4;entryPerimeter=0;exitPerimeter=0;" edge="1" parent="1" source="6mRauI2d-_juUQgrWfH8-1" target="6lhoyeqqwMRIm5VgxkKL-10">
          <mxGeometry relative="1" as="geometry" />
        </mxCell>
        <mxCell id="6lhoyeqqwMRIm5VgxkKL-7" style="edgeStyle=orthogonalEdgeStyle;shape=connector;curved=1;rounded=0;orthogonalLoop=1;jettySize=auto;html=1;exitX=0.75;exitY=0;exitDx=0;exitDy=0;strokeColor=default;strokeWidth=2;align=center;verticalAlign=middle;fontFamily=Helvetica;fontSize=12;fontColor=default;labelBackgroundColor=default;endArrow=none;endFill=0;targetPerimeterSpacing=4;" edge="1" parent="1" source="6lhoyeqqwMRIm5VgxkKL-10">
          <mxGeometry relative="1" as="geometry">
            <mxPoint x="305" y="640" as="targetPoint" />
          </mxGeometry>
        </mxCell>
        <mxCell id="6lhoyeqqwMRIm5VgxkKL-8" style="edgeStyle=orthogonalEdgeStyle;shape=connector;curved=1;rounded=0;orthogonalLoop=1;jettySize=auto;html=1;exitX=0.5;exitY=0;exitDx=0;exitDy=0;strokeColor=default;strokeWidth=2;align=center;verticalAlign=middle;fontFamily=Helvetica;fontSize=12;fontColor=default;labelBackgroundColor=default;endArrow=none;endFill=0;targetPerimeterSpacing=4;" edge="1" parent="1" source="6lhoyeqqwMRIm5VgxkKL-10">
          <mxGeometry relative="1" as="geometry">
            <mxPoint x="330.20000000000005" y="640" as="targetPoint" />
          </mxGeometry>
        </mxCell>
        <mxCell id="6lhoyeqqwMRIm5VgxkKL-9" style="edgeStyle=orthogonalEdgeStyle;shape=connector;curved=1;rounded=0;orthogonalLoop=1;jettySize=auto;html=1;exitX=0.25;exitY=0;exitDx=0;exitDy=0;strokeColor=default;strokeWidth=2;align=center;verticalAlign=middle;fontFamily=Helvetica;fontSize=12;fontColor=default;labelBackgroundColor=default;endArrow=none;endFill=0;targetPerimeterSpacing=4;" edge="1" parent="1" source="6lhoyeqqwMRIm5VgxkKL-10">
          <mxGeometry relative="1" as="geometry">
            <mxPoint x="355" y="640" as="targetPoint" />
          </mxGeometry>
        </mxCell>
        <mxCell id="6lhoyeqqwMRIm5VgxkKL-10" value="" style="shape=trapezoid;perimeter=trapezoidPerimeter;whiteSpace=wrap;html=1;fixedSize=1;fontFamily=Helvetica;fontSize=12;labelBackgroundColor=default;size=50;direction=west;rounded=1;strokeColor=#9673a6;strokeWidth=2;align=center;verticalAlign=middle;fillColor=#e1d5e7;arcSize=12;flipV=1;" vertex="1" parent="1">
          <mxGeometry x="280" y="580" width="100" height="40" as="geometry" />
        </mxCell>
        <mxCell id="6mRauI2d-_juUQgrWfH8-2" value="" style="edgeStyle=orthogonalEdgeStyle;shape=connector;curved=1;rounded=0;orthogonalLoop=1;jettySize=auto;html=1;exitX=0.498;exitY=0.933;exitDx=0;exitDy=0;entryX=0.498;entryY=0.113;entryDx=0;entryDy=0;strokeColor=default;strokeWidth=2;align=center;verticalAlign=middle;fontFamily=Helvetica;fontSize=12;fontColor=default;labelBackgroundColor=default;endArrow=none;endFill=0;targetPerimeterSpacing=4;entryPerimeter=0;exitPerimeter=0;" edge="1" parent="1" source="6lhoyeqqwMRIm5VgxkKL-6" target="6mRauI2d-_juUQgrWfH8-1">
          <mxGeometry relative="1" as="geometry">
            <mxPoint x="330" y="497" as="sourcePoint" />
            <mxPoint x="330" y="605" as="targetPoint" />
          </mxGeometry>
        </mxCell>
        <mxCell id="6mRauI2d-_juUQgrWfH8-1" value="" style="rounded=1;whiteSpace=wrap;html=1;fontFamily=Helvetica;fontSize=12;labelBackgroundColor=default;strokeWidth=2;align=center;verticalAlign=middle;fillColor=#fff2cc;strokeColor=#d6b656;" vertex="1" parent="1">
          <mxGeometry x="310" y="520" width="40" height="40" as="geometry" />
        </mxCell>
        <mxCell id="6lhoyeqqwMRIm5VgxkKL-6" value="" style="rhombus;whiteSpace=wrap;html=1;fillColor=#f8cecc;strokeColor=#b85450;strokeWidth=2;" vertex="1" parent="1">
          <mxGeometry x="310" y="460" width="40" height="40" as="geometry" />
        </mxCell>
        <mxCell id="1qroPV84a4a_p8pcFITd-2" value="" style="edgeStyle=orthogonalEdgeStyle;shape=connector;curved=1;rounded=0;orthogonalLoop=1;jettySize=auto;html=1;strokeColor=default;strokeWidth=2;align=center;verticalAlign=middle;fontFamily=Helvetica;fontSize=12;fontColor=default;labelBackgroundColor=default;endArrow=none;endFill=0;targetPerimeterSpacing=4;" edge="1" parent="1" source="1qroPV84a4a_p8pcFITd-1" target="6lhoyeqqwMRIm5VgxkKL-6">
          <mxGeometry relative="1" as="geometry" />
        </mxCell>
        <mxCell id="1qroPV84a4a_p8pcFITd-1" value="" style="rounded=1;whiteSpace=wrap;html=1;fontFamily=Helvetica;fontSize=12;labelBackgroundColor=default;strokeWidth=2;align=center;verticalAlign=middle;fillColor=#d5e8d4;strokeColor=#82b366;" vertex="1" parent="1">
          <mxGeometry x="310" y="400" width="40" height="40" as="geometry" />
        </mxCell>
        <mxCell id="1qroPV84a4a_p8pcFITd-3" style="edgeStyle=orthogonalEdgeStyle;shape=connector;curved=1;rounded=0;orthogonalLoop=1;jettySize=auto;html=1;exitX=0.5;exitY=0;exitDx=0;exitDy=0;entryX=0.5;entryY=0.375;entryDx=0;entryDy=0;entryPerimeter=0;strokeColor=default;strokeWidth=2;align=center;verticalAlign=middle;fontFamily=Helvetica;fontSize=12;fontColor=default;labelBackgroundColor=default;endArrow=none;endFill=0;targetPerimeterSpacing=4;" edge="1" parent="1" source="1qroPV84a4a_p8pcFITd-1" target="6lhoyeqqwMRIm5VgxkKL-4">
          <mxGeometry relative="1" as="geometry" />
        </mxCell>
        <mxCell id="6lhoyeqqwMRIm5VgxkKL-4" value="" style="shape=trapezoid;perimeter=trapezoidPerimeter;whiteSpace=wrap;html=1;fixedSize=1;fontFamily=Helvetica;fontSize=12;labelBackgroundColor=default;size=50;direction=west;rounded=1;strokeColor=#9673a6;strokeWidth=2;align=center;verticalAlign=middle;fillColor=#e1d5e7;arcSize=12;flipV=0;" vertex="1" parent="1">
          <mxGeometry x="290" y="340" width="80" height="40" as="geometry" />
        </mxCell>
      </root>
    </mxGraphModel>
  </diagram>
  <diagram id="-bxmA6tK5Z33B_AW7Neg" name="Page-11">
    <mxGraphModel dx="274" dy="275" grid="1" gridSize="5" guides="1" tooltips="1" connect="1" arrows="1" fold="1" page="1" pageScale="1" pageWidth="827" pageHeight="1169" math="0" shadow="0">
      <root>
        <mxCell id="0" />
        <mxCell id="1" parent="0" />
        <mxCell id="c7W7fjUElxMI2XvqnYjV-1" style="edgeStyle=orthogonalEdgeStyle;curved=1;rounded=0;orthogonalLoop=1;jettySize=auto;html=1;entryX=0.502;entryY=0.047;entryDx=0;entryDy=0;strokeColor=default;strokeWidth=2;align=center;verticalAlign=middle;fontFamily=Helvetica;fontSize=12;fontColor=default;labelBackgroundColor=default;endArrow=none;endFill=0;entryPerimeter=0;exitX=0.498;exitY=0.09;exitDx=0;exitDy=0;exitPerimeter=0;" edge="1" parent="1" source="c7W7fjUElxMI2XvqnYjV-5">
          <mxGeometry relative="1" as="geometry">
            <mxPoint x="329.8" y="435" as="targetPoint" />
            <mxPoint x="330" y="460" as="sourcePoint" />
          </mxGeometry>
        </mxCell>
        <mxCell id="c7W7fjUElxMI2XvqnYjV-2" style="edgeStyle=orthogonalEdgeStyle;shape=connector;curved=1;rounded=0;orthogonalLoop=1;jettySize=auto;html=1;exitX=0.498;exitY=0.933;exitDx=0;exitDy=0;strokeColor=default;strokeWidth=2;align=center;verticalAlign=middle;fontFamily=Helvetica;fontSize=12;fontColor=default;labelBackgroundColor=default;endArrow=none;endFill=0;targetPerimeterSpacing=4;exitPerimeter=0;" edge="1" parent="1" source="c7W7fjUElxMI2XvqnYjV-4">
          <mxGeometry relative="1" as="geometry">
            <mxPoint x="330" y="580" as="targetPoint" />
          </mxGeometry>
        </mxCell>
        <mxCell id="c7W7fjUElxMI2XvqnYjV-3" value="" style="edgeStyle=orthogonalEdgeStyle;shape=connector;curved=1;rounded=0;orthogonalLoop=1;jettySize=auto;html=1;exitX=0.498;exitY=0.933;exitDx=0;exitDy=0;entryX=0.498;entryY=0.113;entryDx=0;entryDy=0;strokeColor=default;strokeWidth=2;align=center;verticalAlign=middle;fontFamily=Helvetica;fontSize=12;fontColor=default;labelBackgroundColor=default;endArrow=none;endFill=0;targetPerimeterSpacing=4;entryPerimeter=0;exitPerimeter=0;" edge="1" parent="1" source="c7W7fjUElxMI2XvqnYjV-5" target="c7W7fjUElxMI2XvqnYjV-4">
          <mxGeometry relative="1" as="geometry">
            <mxPoint x="330" y="497" as="sourcePoint" />
            <mxPoint x="330" y="605" as="targetPoint" />
          </mxGeometry>
        </mxCell>
        <mxCell id="c7W7fjUElxMI2XvqnYjV-4" value="" style="rounded=1;whiteSpace=wrap;html=1;fontFamily=Helvetica;fontSize=12;labelBackgroundColor=default;strokeWidth=2;align=center;verticalAlign=middle;fillColor=#fff2cc;strokeColor=#d6b656;" vertex="1" parent="1">
          <mxGeometry x="310" y="520" width="40" height="40" as="geometry" />
        </mxCell>
        <mxCell id="c7W7fjUElxMI2XvqnYjV-5" value="" style="rhombus;whiteSpace=wrap;html=1;fillColor=#f8cecc;strokeColor=#b85450;strokeWidth=2;" vertex="1" parent="1">
          <mxGeometry x="310" y="460" width="40" height="40" as="geometry" />
        </mxCell>
        <mxCell id="c7W7fjUElxMI2XvqnYjV-6" value="" style="edgeStyle=orthogonalEdgeStyle;shape=connector;curved=1;rounded=0;orthogonalLoop=1;jettySize=auto;html=1;strokeColor=default;strokeWidth=2;align=center;verticalAlign=middle;fontFamily=Helvetica;fontSize=12;fontColor=default;labelBackgroundColor=default;endArrow=none;endFill=0;targetPerimeterSpacing=4;" edge="1" parent="1" source="c7W7fjUElxMI2XvqnYjV-7" target="c7W7fjUElxMI2XvqnYjV-5">
          <mxGeometry relative="1" as="geometry" />
        </mxCell>
        <mxCell id="c7W7fjUElxMI2XvqnYjV-8" style="edgeStyle=orthogonalEdgeStyle;shape=connector;curved=1;rounded=0;orthogonalLoop=1;jettySize=auto;html=1;exitX=0.5;exitY=0;exitDx=0;exitDy=0;strokeColor=default;strokeWidth=2;align=center;verticalAlign=middle;fontFamily=Helvetica;fontSize=12;fontColor=default;labelBackgroundColor=default;endArrow=none;endFill=0;targetPerimeterSpacing=4;" edge="1" parent="1" source="c7W7fjUElxMI2XvqnYjV-7">
          <mxGeometry relative="1" as="geometry">
            <mxPoint x="329.9080459770115" y="380" as="targetPoint" />
          </mxGeometry>
        </mxCell>
        <mxCell id="c7W7fjUElxMI2XvqnYjV-7" value="" style="rounded=1;whiteSpace=wrap;html=1;fontFamily=Helvetica;fontSize=12;labelBackgroundColor=default;strokeWidth=2;align=center;verticalAlign=middle;fillColor=#d5e8d4;strokeColor=#82b366;" vertex="1" parent="1">
          <mxGeometry x="310" y="400" width="40" height="40" as="geometry" />
        </mxCell>
      </root>
    </mxGraphModel>
  </diagram>
  <diagram id="S8Ok5Xhxd75o4B3VE3Rr" name="Page-12">
    <mxGraphModel dx="331" dy="333" grid="1" gridSize="5" guides="1" tooltips="1" connect="1" arrows="1" fold="1" page="1" pageScale="1" pageWidth="827" pageHeight="1169" math="0" shadow="0">
      <root>
        <mxCell id="0" />
        <mxCell id="1" parent="0" />
        <mxCell id="Q3ebrA1RLPTo4uNnLO1R-1" style="edgeStyle=orthogonalEdgeStyle;curved=1;rounded=0;orthogonalLoop=1;jettySize=auto;html=1;exitX=0.502;exitY=0.052;exitDx=0;exitDy=0;strokeColor=default;strokeWidth=2;align=center;verticalAlign=middle;fontFamily=Helvetica;fontSize=12;fontColor=default;labelBackgroundColor=default;endArrow=none;endFill=0;exitPerimeter=0;" edge="1" parent="1">
          <mxGeometry relative="1" as="geometry">
            <mxPoint x="180" y="282" as="targetPoint" />
            <mxPoint x="180" y="260" as="sourcePoint" />
          </mxGeometry>
        </mxCell>
        <mxCell id="Q3ebrA1RLPTo4uNnLO1R-2" style="edgeStyle=orthogonalEdgeStyle;curved=1;rounded=0;orthogonalLoop=1;jettySize=auto;html=1;exitX=0.5;exitY=1;exitDx=0;exitDy=0;entryX=0.502;entryY=0.047;entryDx=0;entryDy=0;strokeColor=default;strokeWidth=2;align=center;verticalAlign=middle;fontFamily=Helvetica;fontSize=12;fontColor=default;labelBackgroundColor=default;endArrow=none;endFill=0;entryPerimeter=0;" edge="1" parent="1" source="Q3ebrA1RLPTo4uNnLO1R-3">
          <mxGeometry relative="1" as="geometry">
            <mxPoint x="179.76" y="343.8800000000001" as="targetPoint" />
          </mxGeometry>
        </mxCell>
        <mxCell id="Q3ebrA1RLPTo4uNnLO1R-3" value="" style="rounded=1;whiteSpace=wrap;html=1;fontFamily=Helvetica;fontSize=12;labelBackgroundColor=default;strokeWidth=2;align=center;verticalAlign=middle;fillColor=#7EA6E0;strokeColor=default;fontColor=default;" vertex="1" parent="1">
          <mxGeometry x="160" y="282" width="40" height="40" as="geometry" />
        </mxCell>
      </root>
    </mxGraphModel>
  </diagram>
  <diagram id="XE00Az9TFbZc1OM_oiur" name="Page-13">
    <mxGraphModel dx="331" dy="333" grid="1" gridSize="5" guides="1" tooltips="1" connect="1" arrows="1" fold="1" page="1" pageScale="1" pageWidth="827" pageHeight="1169" math="0" shadow="0">
      <root>
        <mxCell id="0" />
        <mxCell id="1" parent="0" />
        <mxCell id="IuVxAbrCcmuISFsL7_xZ-14" style="edgeStyle=orthogonalEdgeStyle;shape=connector;curved=1;rounded=0;orthogonalLoop=1;jettySize=auto;html=1;exitX=0.5;exitY=0;exitDx=0;exitDy=0;strokeColor=default;strokeWidth=2;align=center;verticalAlign=middle;fontFamily=Helvetica;fontSize=12;fontColor=default;labelBackgroundColor=default;endArrow=none;endFill=0;targetPerimeterSpacing=4;" edge="1" parent="1">
          <mxGeometry relative="1" as="geometry">
            <mxPoint x="339.9954838709677" y="435" as="targetPoint" />
            <mxPoint x="340.06" y="465" as="sourcePoint" />
          </mxGeometry>
        </mxCell>
        <mxCell id="IuVxAbrCcmuISFsL7_xZ-5" style="edgeStyle=orthogonalEdgeStyle;shape=connector;curved=1;rounded=0;orthogonalLoop=1;jettySize=auto;html=1;entryX=0.498;entryY=0.113;entryDx=0;entryDy=0;strokeColor=default;strokeWidth=2;align=center;verticalAlign=middle;fontFamily=Helvetica;fontSize=12;fontColor=default;labelBackgroundColor=default;endArrow=none;endFill=0;targetPerimeterSpacing=4;entryPerimeter=0;" edge="1" parent="1" target="IuVxAbrCcmuISFsL7_xZ-10">
          <mxGeometry relative="1" as="geometry">
            <mxPoint x="330" y="500" as="sourcePoint" />
          </mxGeometry>
        </mxCell>
        <mxCell id="IuVxAbrCcmuISFsL7_xZ-7" style="edgeStyle=orthogonalEdgeStyle;shape=connector;curved=1;rounded=0;orthogonalLoop=1;jettySize=auto;html=1;exitX=0.75;exitY=0;exitDx=0;exitDy=0;strokeColor=default;strokeWidth=2;align=center;verticalAlign=middle;fontFamily=Helvetica;fontSize=12;fontColor=default;labelBackgroundColor=default;endArrow=none;endFill=0;targetPerimeterSpacing=4;" edge="1" parent="1" source="IuVxAbrCcmuISFsL7_xZ-10">
          <mxGeometry relative="1" as="geometry">
            <mxPoint x="305" y="580" as="targetPoint" />
          </mxGeometry>
        </mxCell>
        <mxCell id="IuVxAbrCcmuISFsL7_xZ-8" style="edgeStyle=orthogonalEdgeStyle;shape=connector;curved=1;rounded=0;orthogonalLoop=1;jettySize=auto;html=1;exitX=0.5;exitY=0;exitDx=0;exitDy=0;strokeColor=default;strokeWidth=2;align=center;verticalAlign=middle;fontFamily=Helvetica;fontSize=12;fontColor=default;labelBackgroundColor=default;endArrow=none;endFill=0;targetPerimeterSpacing=4;" edge="1" parent="1" source="IuVxAbrCcmuISFsL7_xZ-10">
          <mxGeometry relative="1" as="geometry">
            <mxPoint x="330.20000000000005" y="580" as="targetPoint" />
          </mxGeometry>
        </mxCell>
        <mxCell id="IuVxAbrCcmuISFsL7_xZ-9" style="edgeStyle=orthogonalEdgeStyle;shape=connector;curved=1;rounded=0;orthogonalLoop=1;jettySize=auto;html=1;exitX=0.25;exitY=0;exitDx=0;exitDy=0;strokeColor=default;strokeWidth=2;align=center;verticalAlign=middle;fontFamily=Helvetica;fontSize=12;fontColor=default;labelBackgroundColor=default;endArrow=none;endFill=0;targetPerimeterSpacing=4;" edge="1" parent="1" source="IuVxAbrCcmuISFsL7_xZ-10">
          <mxGeometry relative="1" as="geometry">
            <mxPoint x="355" y="580" as="targetPoint" />
          </mxGeometry>
        </mxCell>
        <mxCell id="IuVxAbrCcmuISFsL7_xZ-10" value="" style="shape=trapezoid;perimeter=trapezoidPerimeter;whiteSpace=wrap;html=1;fixedSize=1;fontFamily=Helvetica;fontSize=12;labelBackgroundColor=default;size=50;direction=west;rounded=1;strokeColor=#d6b656;strokeWidth=2;align=center;verticalAlign=middle;fillColor=#fff2cc;arcSize=12;flipV=1;" vertex="1" parent="1">
          <mxGeometry x="280" y="520" width="100" height="40" as="geometry" />
        </mxCell>
        <mxCell id="IuVxAbrCcmuISFsL7_xZ-13" style="edgeStyle=orthogonalEdgeStyle;shape=connector;curved=1;rounded=0;orthogonalLoop=1;jettySize=auto;html=1;exitX=0.5;exitY=0;exitDx=0;exitDy=0;strokeColor=default;strokeWidth=2;align=center;verticalAlign=middle;fontFamily=Helvetica;fontSize=12;fontColor=default;labelBackgroundColor=default;endArrow=none;endFill=0;targetPerimeterSpacing=4;" edge="1" parent="1">
          <mxGeometry relative="1" as="geometry">
            <mxPoint x="319.9954838709677" y="435" as="targetPoint" />
            <mxPoint x="320.06" y="465" as="sourcePoint" />
          </mxGeometry>
        </mxCell>
        <mxCell id="IuVxAbrCcmuISFsL7_xZ-12" value="" style="ellipse;whiteSpace=wrap;html=1;fontFamily=Helvetica;fontSize=12;labelBackgroundColor=default;fillColor=#d5e8d4;strokeColor=#82b366;strokeWidth=2;" vertex="1" parent="1">
          <mxGeometry x="300" y="460" width="60" height="40" as="geometry" />
        </mxCell>
      </root>
    </mxGraphModel>
  </diagram>
  <diagram id="xJWLoX6QRXNZmO0QnQQi" name="Page-14">
    <mxGraphModel dx="477" dy="479" grid="1" gridSize="5" guides="1" tooltips="1" connect="1" arrows="1" fold="1" page="1" pageScale="1" pageWidth="827" pageHeight="1169" math="0" shadow="0">
      <root>
        <mxCell id="0" />
        <mxCell id="1" parent="0" />
        <mxCell id="PRv9aKcHoLJ5Vnv8KmgK-2" style="edgeStyle=orthogonalEdgeStyle;shape=connector;curved=1;rounded=0;orthogonalLoop=1;jettySize=auto;html=1;exitX=0.75;exitY=1;exitDx=0;exitDy=0;strokeColor=default;strokeWidth=2;align=center;verticalAlign=middle;fontFamily=Helvetica;fontSize=12;fontColor=default;labelBackgroundColor=default;endArrow=none;endFill=0;targetPerimeterSpacing=4;" edge="1" parent="1" source="PRv9aKcHoLJ5Vnv8KmgK-15">
          <mxGeometry relative="1" as="geometry">
            <mxPoint x="310" y="380" as="targetPoint" />
          </mxGeometry>
        </mxCell>
        <mxCell id="PRv9aKcHoLJ5Vnv8KmgK-3" style="edgeStyle=orthogonalEdgeStyle;shape=connector;curved=1;rounded=0;orthogonalLoop=1;jettySize=auto;html=1;exitX=0.25;exitY=1;exitDx=0;exitDy=0;strokeColor=default;strokeWidth=2;align=center;verticalAlign=middle;fontFamily=Helvetica;fontSize=12;fontColor=default;labelBackgroundColor=default;endArrow=none;endFill=0;targetPerimeterSpacing=4;" edge="1" parent="1" source="PRv9aKcHoLJ5Vnv8KmgK-15">
          <mxGeometry relative="1" as="geometry">
            <mxPoint x="350" y="380" as="targetPoint" />
          </mxGeometry>
        </mxCell>
        <mxCell id="PRv9aKcHoLJ5Vnv8KmgK-4" style="edgeStyle=orthogonalEdgeStyle;shape=connector;curved=1;rounded=0;orthogonalLoop=1;jettySize=auto;html=1;exitX=0.498;exitY=0.933;exitDx=0;exitDy=0;entryX=0.498;entryY=0.113;entryDx=0;entryDy=0;strokeColor=default;strokeWidth=2;align=center;verticalAlign=middle;fontFamily=Helvetica;fontSize=12;fontColor=default;labelBackgroundColor=default;endArrow=none;endFill=0;targetPerimeterSpacing=4;entryPerimeter=0;exitPerimeter=0;" edge="1" parent="1" source="PRv9aKcHoLJ5Vnv8KmgK-10" target="PRv9aKcHoLJ5Vnv8KmgK-8">
          <mxGeometry relative="1" as="geometry" />
        </mxCell>
        <mxCell id="PRv9aKcHoLJ5Vnv8KmgK-5" style="edgeStyle=orthogonalEdgeStyle;shape=connector;curved=1;rounded=0;orthogonalLoop=1;jettySize=auto;html=1;exitX=0.75;exitY=0;exitDx=0;exitDy=0;strokeColor=default;strokeWidth=2;align=center;verticalAlign=middle;fontFamily=Helvetica;fontSize=12;fontColor=default;labelBackgroundColor=default;endArrow=none;endFill=0;targetPerimeterSpacing=4;" edge="1" parent="1" source="PRv9aKcHoLJ5Vnv8KmgK-8">
          <mxGeometry relative="1" as="geometry">
            <mxPoint x="305" y="640" as="targetPoint" />
          </mxGeometry>
        </mxCell>
        <mxCell id="PRv9aKcHoLJ5Vnv8KmgK-6" style="edgeStyle=orthogonalEdgeStyle;shape=connector;curved=1;rounded=0;orthogonalLoop=1;jettySize=auto;html=1;exitX=0.5;exitY=0;exitDx=0;exitDy=0;strokeColor=default;strokeWidth=2;align=center;verticalAlign=middle;fontFamily=Helvetica;fontSize=12;fontColor=default;labelBackgroundColor=default;endArrow=none;endFill=0;targetPerimeterSpacing=4;" edge="1" parent="1" source="PRv9aKcHoLJ5Vnv8KmgK-8">
          <mxGeometry relative="1" as="geometry">
            <mxPoint x="330.20000000000005" y="640" as="targetPoint" />
          </mxGeometry>
        </mxCell>
        <mxCell id="PRv9aKcHoLJ5Vnv8KmgK-7" style="edgeStyle=orthogonalEdgeStyle;shape=connector;curved=1;rounded=0;orthogonalLoop=1;jettySize=auto;html=1;exitX=0.25;exitY=0;exitDx=0;exitDy=0;strokeColor=default;strokeWidth=2;align=center;verticalAlign=middle;fontFamily=Helvetica;fontSize=12;fontColor=default;labelBackgroundColor=default;endArrow=none;endFill=0;targetPerimeterSpacing=4;" edge="1" parent="1" source="PRv9aKcHoLJ5Vnv8KmgK-8">
          <mxGeometry relative="1" as="geometry">
            <mxPoint x="355" y="640" as="targetPoint" />
          </mxGeometry>
        </mxCell>
        <mxCell id="PRv9aKcHoLJ5Vnv8KmgK-8" value="" style="shape=trapezoid;perimeter=trapezoidPerimeter;whiteSpace=wrap;html=1;fixedSize=1;fontFamily=Helvetica;fontSize=12;labelBackgroundColor=default;size=50;direction=west;rounded=1;strokeColor=#9673a6;strokeWidth=2;align=center;verticalAlign=middle;fillColor=#e1d5e7;arcSize=12;flipV=1;" vertex="1" parent="1">
          <mxGeometry x="280" y="580" width="100" height="40" as="geometry" />
        </mxCell>
        <mxCell id="PRv9aKcHoLJ5Vnv8KmgK-9" value="" style="edgeStyle=orthogonalEdgeStyle;shape=connector;curved=1;rounded=0;orthogonalLoop=1;jettySize=auto;html=1;exitX=0.498;exitY=0.933;exitDx=0;exitDy=0;entryX=0.498;entryY=0.113;entryDx=0;entryDy=0;strokeColor=default;strokeWidth=2;align=center;verticalAlign=middle;fontFamily=Helvetica;fontSize=12;fontColor=default;labelBackgroundColor=default;endArrow=none;endFill=0;targetPerimeterSpacing=4;entryPerimeter=0;exitPerimeter=0;" edge="1" parent="1" target="PRv9aKcHoLJ5Vnv8KmgK-10">
          <mxGeometry relative="1" as="geometry">
            <mxPoint x="329.91999999999996" y="497.32000000000005" as="sourcePoint" />
            <mxPoint x="330" y="605" as="targetPoint" />
          </mxGeometry>
        </mxCell>
        <mxCell id="PRv9aKcHoLJ5Vnv8KmgK-10" value="" style="rounded=1;whiteSpace=wrap;html=1;fontFamily=Helvetica;fontSize=12;labelBackgroundColor=default;strokeWidth=2;align=center;verticalAlign=middle;fillColor=#fff2cc;strokeColor=#d6b656;" vertex="1" parent="1">
          <mxGeometry x="310" y="520" width="40" height="40" as="geometry" />
        </mxCell>
        <mxCell id="PRv9aKcHoLJ5Vnv8KmgK-13" value="" style="rounded=1;whiteSpace=wrap;html=1;fontFamily=Helvetica;fontSize=12;labelBackgroundColor=default;strokeWidth=2;align=center;verticalAlign=middle;fillColor=#d5e8d4;strokeColor=#82b366;" vertex="1" parent="1">
          <mxGeometry x="310" y="460" width="40" height="40" as="geometry" />
        </mxCell>
        <mxCell id="PRv9aKcHoLJ5Vnv8KmgK-14" style="edgeStyle=orthogonalEdgeStyle;shape=connector;curved=1;rounded=0;orthogonalLoop=1;jettySize=auto;html=1;exitX=0.5;exitY=0;exitDx=0;exitDy=0;entryX=0.5;entryY=0.375;entryDx=0;entryDy=0;entryPerimeter=0;strokeColor=default;strokeWidth=2;align=center;verticalAlign=middle;fontFamily=Helvetica;fontSize=12;fontColor=default;labelBackgroundColor=default;endArrow=none;endFill=0;targetPerimeterSpacing=4;" edge="1" parent="1" source="PRv9aKcHoLJ5Vnv8KmgK-13" target="PRv9aKcHoLJ5Vnv8KmgK-15">
          <mxGeometry relative="1" as="geometry" />
        </mxCell>
        <mxCell id="PRv9aKcHoLJ5Vnv8KmgK-15" value="" style="shape=trapezoid;perimeter=trapezoidPerimeter;whiteSpace=wrap;html=1;fixedSize=1;fontFamily=Helvetica;fontSize=12;labelBackgroundColor=default;size=50;direction=west;rounded=1;strokeColor=#9673a6;strokeWidth=2;align=center;verticalAlign=middle;fillColor=#e1d5e7;arcSize=12;flipV=0;" vertex="1" parent="1">
          <mxGeometry x="290" y="400" width="80" height="40" as="geometry" />
        </mxCell>
      </root>
    </mxGraphModel>
  </diagram>
  <diagram id="omioPaRD-qc0CS2Q906C" name="Page-15">
    <mxGraphModel dx="398" dy="399" grid="1" gridSize="5" guides="1" tooltips="1" connect="1" arrows="1" fold="1" page="1" pageScale="1" pageWidth="827" pageHeight="1169" math="0" shadow="0">
      <root>
        <mxCell id="0" />
        <mxCell id="1" parent="0" />
        <mxCell id="vmknRJzwKCBgM_xoTcts-2" style="edgeStyle=orthogonalEdgeStyle;shape=connector;curved=1;rounded=0;orthogonalLoop=1;jettySize=auto;html=1;exitX=0.498;exitY=0.933;exitDx=0;exitDy=0;strokeColor=default;strokeWidth=2;align=center;verticalAlign=middle;fontFamily=Helvetica;fontSize=12;fontColor=default;labelBackgroundColor=default;endArrow=none;endFill=0;targetPerimeterSpacing=4;exitPerimeter=0;" edge="1" parent="1" source="vmknRJzwKCBgM_xoTcts-4">
          <mxGeometry relative="1" as="geometry">
            <mxPoint x="330" y="580" as="targetPoint" />
          </mxGeometry>
        </mxCell>
        <mxCell id="vmknRJzwKCBgM_xoTcts-3" value="" style="edgeStyle=orthogonalEdgeStyle;shape=connector;curved=1;rounded=0;orthogonalLoop=1;jettySize=auto;html=1;exitX=0.498;exitY=0.933;exitDx=0;exitDy=0;entryX=0.498;entryY=0.113;entryDx=0;entryDy=0;strokeColor=default;strokeWidth=2;align=center;verticalAlign=middle;fontFamily=Helvetica;fontSize=12;fontColor=default;labelBackgroundColor=default;endArrow=none;endFill=0;targetPerimeterSpacing=4;entryPerimeter=0;exitPerimeter=0;" edge="1" parent="1" target="vmknRJzwKCBgM_xoTcts-4">
          <mxGeometry relative="1" as="geometry">
            <mxPoint x="329.9200000000001" y="497.32000000000005" as="sourcePoint" />
            <mxPoint x="330" y="605" as="targetPoint" />
          </mxGeometry>
        </mxCell>
        <mxCell id="vmknRJzwKCBgM_xoTcts-4" value="" style="rounded=1;whiteSpace=wrap;html=1;fontFamily=Helvetica;fontSize=12;labelBackgroundColor=default;strokeWidth=2;align=center;verticalAlign=middle;fillColor=#fff2cc;strokeColor=#d6b656;" vertex="1" parent="1">
          <mxGeometry x="310" y="520" width="40" height="40" as="geometry" />
        </mxCell>
        <mxCell id="vmknRJzwKCBgM_xoTcts-7" style="edgeStyle=orthogonalEdgeStyle;shape=connector;curved=1;rounded=0;orthogonalLoop=1;jettySize=auto;html=1;exitX=0.5;exitY=0;exitDx=0;exitDy=0;strokeColor=default;strokeWidth=2;align=center;verticalAlign=middle;fontFamily=Helvetica;fontSize=12;fontColor=default;labelBackgroundColor=default;endArrow=none;endFill=0;targetPerimeterSpacing=4;" edge="1" parent="1" source="vmknRJzwKCBgM_xoTcts-8">
          <mxGeometry relative="1" as="geometry">
            <mxPoint x="330" y="440" as="targetPoint" />
          </mxGeometry>
        </mxCell>
        <mxCell id="vmknRJzwKCBgM_xoTcts-8" value="" style="rounded=1;whiteSpace=wrap;html=1;fontFamily=Helvetica;fontSize=12;labelBackgroundColor=default;strokeWidth=2;align=center;verticalAlign=middle;fillColor=#d5e8d4;strokeColor=#82b366;" vertex="1" parent="1">
          <mxGeometry x="310" y="460" width="40" height="40" as="geometry" />
        </mxCell>
      </root>
    </mxGraphModel>
  </diagram>
</mxfile>
